o ScreenFrame
v 0.39433756729740643 0 -3.2810889132455352
v 0.36547005383792514 0.1 -3.2310889132455354
v 0.61547005383792519 0.1 -2.7980762113533162
v 0.64433756729740643 0 -2.848076211353316
v 1.1154700538379252 0.1 -2.7980762113533162
v 1.1443375672974065 0 -2.848076211353316
v 1.3654700538379252 0.1 -2.3650635094610966
v 1.3943375672974065 0 -2.4150635094610964
v 1.8654700538379252 0.1 -2.3650635094610966
v 1.8943375672974065 0 -2.4150635094610964
v 2.115470053837925 0.1 -1.9320508075688771
v 2.1443375672974065 0 -1.9820508075688772
v 2.615470053837925 0.1 -1.9320508075688771
v 2.6443375672974065 0 -1.9820508075688772
v 2.9809401076758504 0.1 -1.299038105676658
v 3.0386751345948131 0 -1.299038105676658
v 2.7309401076758504 0.1 -0.8660254037844386
v 2.7886751345948131 0 -0.8660254037844386
v 2.9809401076758504 0.1 -0.4330127018922193
v 3.0386751345948131 0 -0.4330127018922193
v 2.7309401076758504 0.1 0
v 2.7886751345948131 0 0
v 2.9809401076758504 0.1 0.4330127018922193
v 3.0386751345948131 0 0.4330127018922193
v 2.7309401076758504 0.1 0.8660254037844386
v 2.7886751345948131 0 0.8660254037844386
v 2.9809401076758504 0.1 1.299038105676658
v 3.0386751345948131 0 1.299038105676658
v 2.615470053837925 0.1 1.9320508075688771
v 2.6443375672974065 0 1.9820508075688772
v 2.115470053837925 0.1 1.9320508075688771
v 2.1443375672974065 0 1.9820508075688772
v 1.8654700538379252 0.1 2.3650635094610966
v 1.8943375672974065 0 2.4150635094610964
v 1.3654700538379252 0.1 2.3650635094610966
v 1.3943375672974065 0 2.4150635094610964
v 1.1154700538379252 0.1 2.7980762113533162
v 1.1443375672974065 0 2.848076211353316
v 0.61547005383792519 0.1 2.7980762113533162
v 0.64433756729740643 0 2.848076211353316
v 0.36547005383792514 0.1 3.2310889132455354
v 0.39433756729740643 0 3.2810889132455352
v -0.36547005383792514 0.1 3.2310889132455354
v -0.39433756729740643 0 3.2810889132455352
v -0.61547005383792519 0.1 2.7980762113533162
v -0.64433756729740643 0 2.848076211353316
v -1.1154700538379252 0.1 2.7980762113533162
v -1.1443375672974065 0 2.848076211353316
v -1.3654700538379252 0.1 2.3650635094610966
v -1.3943375672974065 0 2.4150635094610964
v -1.8654700538379252 0.1 2.3650635094610966
v -1.8943375672974065 0 2.4150635094610964
v -2.115470053837925 0.1 1.9320508075688771
v -2.1443375672974065 0 1.9820508075688772
v -2.615470053837925 0.1 1.9320508075688771
v -2.6443375672974065 0 1.9820508075688772
v -2.9809401076758504 0.1 1.299038105676658
v -3.0386751345948131 0 1.299038105676658
v -2.7309401076758504 0.1 0.8660254037844386
v -2.7886751345948131 0 0.8660254037844386
v -2.9809401076758504 0.1 0.4330127018922193
v -3.0386751345948131 0 0.4330127018922193
v -2.7309401076758504 0.1 0
v -2.7886751345948131 0 0
v -2.9809401076758504 0.1 -0.4330127018922193
v -3.0386751345948131 0 -0.4330127018922193
v -2.7309401076758504 0.1 -0.8660254037844386
v -2.7886751345948131 0 -0.8660254037844386
v -2.9809401076758504 0.1 -1.299038105676658
v -3.0386751345948131 0 -1.299038105676658
v -2.615470053837925 0.1 -1.9320508075688771
v -2.6443375672974065 0 -1.9820508075688772
v -2.115470053837925 0.1 -1.9320508075688771
v -2.1443375672974065 0 -1.9820508075688772
v -1.8654700538379252 0.1 -2.3650635094610966
v -1.8943375672974065 0 -2.4150635094610964
v -1.3654700538379252 0.1 -2.3650635094610966
v -1.3943375672974065 0 -2.4150635094610964
v -1.1154700538379252 0.1 -2.7980762113533162
v -1.1443375672974065 0 -2.848076211353316
v -0.61547005383792519 0.1 -2.7980762113533162
v -0.64433756729740643 0 -2.848076211353316
v -0.36547005383792514 0.1 -3.2310889132455354
v -0.39433756729740643 0 -3.2810889132455352
v 0.2788675134594813 0.1 -3.081088913245535
v 0.52886751345948124 0.1 -2.6480762113533158
v 1.0288675134594814 0.1 -2.6480762113533158
v 1.2788675134594814 0.1 -2.2150635094610962
v 1.7788675134594814 0.1 -2.2150635094610962
v 2.0288675134594811 0.1 -1.7820508075688772
v 2.5288675134594811 0.1 -1.7820508075688772
v 2.8077350269189627 0.1 -1.299038105676658
v 2.5577350269189627 0.1 -0.8660254037844386
v 2.8077350269189627 0.1 -0.4330127018922193
v 2.5577350269189627 0.1 0
v 2.8077350269189627 0.1 0.4330127018922193
v 2.5577350269189627 0.1 0.8660254037844386
v 2.8077350269189627 0.1 1.299038105676658
v 2.5288675134594811 0.1 1.7820508075688772
v 2.0288675134594811 0.1 1.7820508075688772
v 1.7788675134594814 0.1 2.2150635094610962
v 1.2788675134594814 0.1 2.2150635094610962
v 1.0288675134594814 0.1 2.6480762113533158
v 0.52886751345948124 0.1 2.6480762113533158
v 0.2788675134594813 0.1 3.081088913245535
v -0.2788675134594813 0.1 3.081088913245535
v -0.52886751345948124 0.1 2.6480762113533158
v -1.0288675134594814 0.1 2.6480762113533158
v -1.2788675134594814 0.1 2.2150635094610962
v -1.7788675134594814 0.1 2.2150635094610962
v -2.0288675134594811 0.1 1.7820508075688772
v -2.5288675134594811 0.1 1.7820508075688772
v -2.8077350269189627 0.1 1.299038105676658
v -2.5577350269189627 0.1 0.8660254037844386
v -2.8077350269189627 0.1 0.4330127018922193
v -2.5577350269189627 0.1 0
v -2.8077350269189627 0.1 -0.4330127018922193
v -2.5577350269189627 0.1 -0.8660254037844386
v -2.8077350269189627 0.1 -1.299038105676658
v -2.5288675134594811 0.1 -1.7820508075688772
v -2.0288675134594811 0.1 -1.7820508075688772
v -1.7788675134594814 0.1 -2.2150635094610962
v -1.2788675134594814 0.1 -2.2150635094610962
v -1.0288675134594814 0.1 -2.6480762113533158
v -0.52886751345948124 0.1 -2.6480762113533158
v -0.2788675134594813 0.1 -3.081088913245535
v 0.25 0 -3.0310889132455352
v 0.5 0 -2.598076211353316
v 1 0 -2.598076211353316
v 1.25 0 -2.1650635094610964
v 1.75 0 -2.1650635094610964
v 2 0 -1.7320508075688772
v 2.5 0 -1.7320508075688772
v 2.75 0 -1.299038105676658
v 2.5 0 -0.8660254037844386
v 2.75 0 -0.4330127018922193
v 2.5 0 0
v 2.75 0 0.4330127018922193
v 2.5 0 0.8660254037844386
v 2.75 0 1.299038105676658
v 2.5 0 1.7320508075688772
v 2 0 1.7320508075688772
v 1.75 0 2.1650635094610964
v 1.25 0 2.1650635094610964
v 1 0 2.598076211353316
v 0.5 0 2.598076211353316
v 0.25 0 3.0310889132455352
v -0.25 0 3.0310889132455352
v -0.5 0 2.598076211353316
v -1 0 2.598076211353316
v -1.25 0 2.1650635094610964
v -1.75 0 2.1650635094610964
v -2 0 1.7320508075688772
v -2.5 0 1.7320508075688772
v -2.75 0 1.299038105676658
v -2.5 0 0.8660254037844386
v -2.75 0 0.4330127018922193
v -2.5 0 0
v -2.75 0 -0.4330127018922193
v -2.5 0 -0.8660254037844386
v -2.75 0 -1.299038105676658
v -2.5 0 -1.7320508075688772
v -2 0 -1.7320508075688772
v -1.75 0 -2.1650635094610964
v -1.25 0 -2.1650635094610964
v -1 0 -2.598076211353316
v -0.5 0 -2.598076211353316
v -0.25 0 -3.0310889132455352
vn 0.043301270189221919 0.024999999999999956 -0.025
vn 0.043301270189221919 0.02499999999999996 -0.025000000000000008
vn 0.043301270189221919 0.024999999999999935 -0.025000000000000008
vn 0.043301270189221919 0.024999999999999932 -0.025
vn 0 0.024999999999999918 -0.050000000000000017
vn 0 0.024999999999999911 -0.05
vn 0.043301270189221967 0.024999999999999994 -0.025
vn 0.043301270189221919 0.024999999999999981 -0.025
vn 0.043301270189221946 0.024999999999999974 -0.024999999999999981
vn 0.043301270189221946 0.025000000000000126 -0.024999999999999981
vn 0.043301270189221919 0.025000000000000133 -0.025
vn 0 0.025000000000000022 -0.05
vn 0.068301270189221927 0.039433756729740858 -0.039433756729740657
vn 0.063301270189221923 0.03654700538379272 -0.03654700538379254
vn 0.063301270189221923 0.036547005383792588 -0.03654700538379254
vn 0.068301270189221927 0.039433756729740727 -0.039433756729740657
vn 0.043301270189221946 0.02500000000000006 0.025
vn 0.043301270189221933 0.025000000000000053 -0.025
vn 0.043301270189221933 0.025000000000000053 0.025
vn 0.043301270189221946 0.02500000000000006 -0.025
vn 0.068301270189221927 0.039433756729740727 0.039433756729740657
vn 0.063301270189221923 0.036547005383792588 0.03654700538379254
vn 0.063301270189221923 0.03654700538379272 0.03654700538379254
vn 0.068301270189221927 0.039433756729740858 0.039433756729740657
vn 0 0.025000000000000022 0.05
vn 0.043301270189221919 0.025000000000000133 0.025
vn 0.043301270189221946 0.025000000000000126 0.024999999999999981
vn 0.043301270189221946 0.024999999999999974 0.024999999999999981
vn 0.043301270189221919 0.024999999999999981 0.025
vn 0 0.024999999999999911 0.05
vn 0.043301270189221967 0.024999999999999994 0.025
vn 0 0.024999999999999918 0.050000000000000017
vn 0.043301270189221919 0.024999999999999932 0.025
vn 0.043301270189221919 0.024999999999999935 0.025000000000000008
vn 0.043301270189221919 0.02499999999999996 0.025000000000000008
vn 0.043301270189221919 0.024999999999999956 0.025
vn 0 0.039433756729740504 0.078867513459481287
vn 0 0.03654700538379238 0.073094010767585024
vn -0.043301270189221919 0.024999999999999956 0.025
vn -0.043301270189221919 0.02499999999999996 0.025000000000000008
vn -0.043301270189221919 0.024999999999999935 0.025000000000000008
vn -0.043301270189221919 0.024999999999999932 0.025
vn -0.043301270189221967 0.024999999999999994 0.025
vn -0.043301270189221919 0.024999999999999981 0.025
vn -0.043301270189221946 0.024999999999999974 0.024999999999999981
vn -0.043301270189221946 0.025000000000000126 0.024999999999999981
vn -0.043301270189221919 0.025000000000000133 0.025
vn -0.068301270189221927 0.039433756729740858 0.039433756729740657
vn -0.063301270189221923 0.03654700538379272 0.03654700538379254
vn -0.063301270189221923 0.036547005383792588 0.03654700538379254
vn -0.068301270189221927 0.039433756729740727 0.039433756729740657
vn -0.043301270189221946 0.02500000000000006 -0.025
vn -0.043301270189221933 0.025000000000000053 0.025
vn -0.043301270189221933 0.025000000000000053 -0.025
vn -0.043301270189221946 0.02500000000000006 0.025
vn -0.068301270189221927 0.039433756729740727 -0.039433756729740657
vn -0.063301270189221923 0.036547005383792588 -0.03654700538379254
vn -0.063301270189221923 0.03654700538379272 -0.03654700538379254
vn -0.068301270189221927 0.039433756729740858 -0.039433756729740657
vn -0.043301270189221919 0.025000000000000133 -0.025
vn -0.043301270189221946 0.025000000000000126 -0.024999999999999981
vn -0.043301270189221946 0.024999999999999974 -0.024999999999999981
vn -0.043301270189221919 0.024999999999999981 -0.025
vn -0.043301270189221967 0.024999999999999994 -0.025
vn -0.043301270189221919 0.024999999999999932 -0.025
vn -0.043301270189221919 0.024999999999999935 -0.025000000000000008
vn -0.043301270189221919 0.02499999999999996 -0.025000000000000008
vn -0.043301270189221919 0.024999999999999956 -0.025
vn 0 0.039433756729740504 -0.078867513459481287
vn 0 0.03654700538379238 -0.073094010767585024
vn 0 0.075000000000000067 0
vn 0 0.075000000000000108 0
vn 0 0.075000000000000122 0
vn 0 0.075000000000000178 0
vn 0 0.075000000000000192 0
vn 0 0.0750000000000001 0
vn 0 0.075000000000000053 0
vn 0 0.075000000000000011 0
vn 0 0.0749999999999999 0
vn 0 0.074999999999999942 0
vn 0 0.074999999999999956 0
vn 0 0.10964101615137752 0
vn 0 0.083660254037844384 0
vn 0 0.083660254037844342 0
vn 0 0.10964101615137747 0
vn 0 0.075 0
vn 0 0.074999999999999969 0
vn 0 0.10964101615137781 0
vn 0 0.083660254037844592 0
vn -0.043301270189221919 0.024999999999999953 0.024999999999999994
vn -0.043301270189221919 0.024999999999999929 0.024999999999999994
vn -0.0433012701892219 0.024999999999999963 0.024999999999999981
vn -0.043301270189221919 0.024999999999999939 0.025
vn -0.0433012701892219 0.024999999999999922 0.024999999999999981
vn -0.048301270189221923 0.027886751345948077 0.02788675134594816
vn -0.043301270189221919 0.02500000000000005 0.025
vn -0.048301270189221923 0.027886751345948185 0.02788675134594816
vn -0.048301270189221923 0.027886751345948185 -0.02788675134594816
vn -0.043301270189221919 0.02500000000000005 -0.025
vn -0.043301270189221919 0.024999999999999939 -0.025
vn -0.048301270189221923 0.027886751345948077 -0.02788675134594816
vn -0.0433012701892219 0.024999999999999922 -0.024999999999999981
vn -0.0433012701892219 0.024999999999999963 -0.024999999999999981
vn -0.043301270189221919 0.024999999999999929 -0.024999999999999994
vn -0.043301270189221919 0.024999999999999953 -0.024999999999999994
vn 0 0.027886751345948032 -0.055773502691896265
vn 0.043301270189221919 0.024999999999999953 -0.024999999999999994
vn 0.043301270189221919 0.024999999999999929 -0.024999999999999994
vn 0.0433012701892219 0.024999999999999963 -0.024999999999999981
vn 0.043301270189221919 0.024999999999999939 -0.025
vn 0.0433012701892219 0.024999999999999922 -0.024999999999999981
vn 0.048301270189221923 0.027886751345948077 -0.02788675134594816
vn 0.043301270189221919 0.02500000000000005 -0.025
vn 0.048301270189221923 0.027886751345948185 -0.02788675134594816
vn 0.048301270189221923 0.027886751345948185 0.02788675134594816
vn 0.043301270189221919 0.02500000000000005 0.025
vn 0.043301270189221919 0.024999999999999939 0.025
vn 0.048301270189221923 0.027886751345948077 0.02788675134594816
vn 0.0433012701892219 0.024999999999999922 0.024999999999999981
vn 0.0433012701892219 0.024999999999999963 0.024999999999999981
vn 0.043301270189221919 0.024999999999999929 0.024999999999999994
vn 0.043301270189221919 0.024999999999999953 0.024999999999999994
vn 0 0.027886751345948032 0.055773502691896265
g ScreenFrame
f 1//1 2//2 3//3 4//4
f 4//5 3//6 5//6 6//5
f 6//7 5//7 7//7 8//7
f 8//6 7//6 9//6 10//6
f 10//8 9//9 11//10 12//11
f 12//12 11//12 13//12 14//12
f 14//13 13//14 15//15 16//16
f 16//17 15//17 17//17 18//17
f 18//18 17//18 19//18 20//18
f 20//19 19//19 21//19 22//19
f 22//18 21//18 23//18 24//18
f 24//19 23//19 25//19 26//19
f 26//20 25//20 27//20 28//20
f 28//21 27//22 29//23 30//24
f 30//25 29//25 31//25 32//25
f 32//26 31//27 33//28 34//29
f 34//30 33//30 35//30 36//30
f 36//31 35//31 37//31 38//31
f 38//32 37//30 39//30 40//32
f 40//33 39//34 41//35 42//36
f 42//37 41//38 43//38 44//37
f 44//39 43//40 45//41 46//42
f 46//32 45//30 47//30 48//32
f 48//43 47//43 49//43 50//43
f 50//30 49//30 51//30 52//30
f 52//44 51//45 53//46 54//47
f 54//25 53//25 55//25 56//25
f 56//48 55//49 57//50 58//51
f 58//52 57//52 59//52 60//52
f 60//53 59//53 61//53 62//53
f 62//54 61//54 63//54 64//54
f 64//53 63//53 65//53 66//53
f 66//54 65//54 67//54 68//54
f 68//55 67//55 69//55 70//55
f 70//56 69//57 71//58 72//59
f 72//12 71//12 73//12 74//12
f 74//60 73//61 75//62 76//63
f 76//6 75//6 77//6 78//6
f 78//64 77//64 79//64 80//64
f 80//5 79//6 81//6 82//5
f 82//65 81//66 83//67 84//68
f 84//69 83//70 2//70 1//69
f 2//71 85//71 86//72 3//73
f 3//74 86//75 87//75 5//74
f 5//76 87//76 88//76 7//76
f 7//74 88//74 89//74 9//74
f 9//77 89//78 90//79 11//80
f 11//81 90//81 91//81 13//81
f 13//82 91//83 92//84 15//85
f 15//86 92//86 93//86 17//86
f 17//87 93//87 94//87 19//87
f 19//87 94//87 95//87 21//87
f 21//87 95//87 96//87 23//87
f 23//87 96//87 97//87 25//87
f 25//86 97//86 98//86 27//86
f 27//85 98//84 99//83 29//82
f 29//81 99//81 100//81 31//81
f 31//80 100//79 101//78 33//77
f 33//74 101//74 102//74 35//74
f 35//76 102//76 103//76 37//76
f 37//74 103//75 104//75 39//74
f 39//73 104//72 105//71 41//71
f 41//88 105//89 106//89 43//88
f 43//71 106//71 107//72 45//73
f 45//74 107//75 108//75 47//74
f 47//76 108//76 109//76 49//76
f 49//74 109//74 110//74 51//74
f 51//77 110//78 111//79 53//80
f 53//81 111//81 112//81 55//81
f 55//82 112//83 113//84 57//85
f 57//86 113//86 114//86 59//86
f 59//87 114//87 115//87 61//87
f 61//87 115//87 116//87 63//87
f 63//87 116//87 117//87 65//87
f 65//87 117//87 118//87 67//87
f 67//86 118//86 119//86 69//86
f 69//85 119//84 120//83 71//82
f 71//81 120//81 121//81 73//81
f 73//80 121//79 122//78 75//77
f 75//74 122//74 123//74 77//74
f 77//76 123//76 124//76 79//76
f 79//74 124//75 125//75 81//74
f 81//73 125//72 126//71 83//71
f 83//88 126//89 85//89 2//88
f 85//90 127//39 128//42 86//91
f 86//32 128//30 129//30 87//32
f 87//43 129//43 130//43 88//43
f 88//30 130//30 131//30 89//30
f 89//92 131//44 132//93 90//94
f 90//25 132//25 133//25 91//25
f 91//95 133//93 134//96 92//97
f 92//52 134//52 135//52 93//52
f 93//53 135//53 136//53 94//53
f 94//54 136//54 137//54 95//54
f 95//53 137//53 138//53 96//53
f 96//54 138//54 139//54 97//54
f 97//55 139//55 140//55 98//55
f 98//98 140//99 141//100 99//101
f 99//12 141//12 142//12 100//12
f 100//102 142//100 143//63 101//103
f 101//6 143//6 144//6 102//6
f 102//64 144//64 145//64 103//64
f 103//5 145//6 146//6 104//5
f 104//104 146//65 147//68 105//105
f 105//106 147//6 148//6 106//106
f 106//107 148//1 149//4 107//108
f 107//5 149//6 150//6 108//5
f 108//7 150//7 151//7 109//7
f 109//6 151//6 152//6 110//6
f 110//109 152//8 153//110 111//111
f 111//12 153//12 154//12 112//12
f 112//112 154//110 155//113 113//114
f 113//17 155//17 156//17 114//17
f 114//18 156//18 157//18 115//18
f 115//19 157//19 158//19 116//19
f 116//18 158//18 159//18 117//18
f 117//19 159//19 160//19 118//19
f 118//20 160//20 161//20 119//20
f 119//115 161//116 162//117 120//118
f 120//25 162//25 163//25 121//25
f 121//119 163//117 164//29 122//120
f 122//30 164//30 165//30 123//30
f 123//31 165//31 166//31 124//31
f 124//32 166//30 167//30 125//32
f 125//121 167//33 168//36 126//122
f 126//123 168//30 127//30 85//123
